<?xml version="1.0" encoding="UTF-8" standalone="no"?><!DOCTYPE svg PUBLIC "-//W3C//DTD SVG 1.1//EN" "http://www.w3.org/Graphics/SVG/1.1/DTD/svg11.dtd"><svg width="100%" height="100%" viewBox="0 0 190 80" version="1.1" xmlns="http://www.w3.org/2000/svg" xmlns:xlink="http://www.w3.org/1999/xlink" xml:space="preserve" xmlns:serif="http://www.serif.com/" style="fill-rule:evenodd;clip-rule:evenodd;stroke-linejoin:round;stroke-miterlimit:1.41421;"><rect x="-1.628" y="-2.271" width="193.028" height="90.303" style="fill:#fff;"/><g><path d="M46.8,39.2l9.2,0l1.6,5.1l5.6,0l-8.8,-24.9l-6,0l-8.9,24.9l5.5,0l1.8,-5.1Zm4.6,-14.1l3.2,9.8l-6.3,0c-0.1,0 3.1,-9.8 3.1,-9.8Z" style="fill-rule:nonzero;"/><path d="M74.2,23.9l7.5,0l0,-4.4l-20.2,0l0,4.4l7.5,0l0,20.4l5.2,0l0,-20.4Z" style="fill-rule:nonzero;"/><path d="M103.7,19.5l-18.3,0l0,24.8l18.9,0l0,-4.4l-13.8,0l0,-6.4l12.1,0l0,-4.4l-12.1,0l0,-5.2l13.2,0l0,-4.4Z" style="fill-rule:nonzero;"/><path d="M108.5,44.3l5.1,0l0,-9.7l5.4,0c3.8,0 4.1,1.3 4.1,4.7c-0.1,1.7 0.1,3.4 0.6,5l5.7,0l0,-0.7c-1.1,-0.4 -1.1,-1.3 -1.1,-4.9c0,-4.6 -1.1,-5.4 -3.2,-6.3c2.4,-0.9 4,-3.3 3.8,-5.9c0,-2.1 -1.2,-7 -7.8,-7l-12.6,0l0,24.8Zm5.1,-13.9l0,-6.6l6.5,0c3,0 3.6,1.9 3.6,3.3c0,2.5 -1.3,3.4 -4,3.4l-6.1,0l0,-0.1Z" style="fill-rule:nonzero;"/><path d="M147.8,36.8l-0.1,0l-9.8,-17.3l-5.5,0l0,24.8l4.8,0l0,-17.7l0.1,0l10.2,17.7l5.2,0l0,-24.8l-4.9,0l0,17.3Z" style="fill-rule:nonzero;"/><path d="M161.5,39.2l9.2,0l1.6,5.1l5.6,0l-8.8,-24.9l-6,0l-8.9,24.9l5.5,0l1.8,-5.1Zm4.6,-14.1l3.1,9.8l-6.3,0l3.2,-9.8Z" style="fill-rule:nonzero;"/><path d="M37.4,19.6l-7.5,0l-4.5,19.6l-4.5,-19.6l-7.6,0l0,24.8l4.8,0l0,-20.8l0.1,0l4.5,20.8l5.1,0l4.7,-20.8l0,20.8l4.9,0l0,-24.8Z" style="fill-rule:nonzero;"/><path d="M84.2,53.8l0,0.2c0.4,0 0.6,0.1 0.6,0.4c0,0.5 -0.4,1 -1,1.7c-0.5,-0.9 -0.8,-1.9 -1.1,-2.9c0.7,-0.4 2.1,-1 2.1,-2.1c0,-0.6 -0.6,-1.1 -1.2,-1.1c-1.1,0 -1.9,1 -1.9,2.5c0,0.2 0,0.3 0.1,1c-1.6,0.7 -3.1,1.3 -3.1,2.9c0,1.1 0.9,1.9 2,1.9l0.1,0c0.9,0 1.8,-0.4 2.5,-1c0.4,0.6 1,0.9 1.7,1c0.6,0 1.2,-0.3 1.6,-0.8l-0.1,-0.1c-0.2,0.2 -0.5,0.3 -0.9,0.4c-0.5,0 -1,-0.3 -1.5,-1.1c0.7,-0.9 1.1,-1.6 1.3,-1.8c0.3,-0.4 0.5,-0.6 1.1,-0.7l0,-0.2l-2.3,-0.2Zm-4.3,2.2c0,-1.4 2,-2.2 2,-2.2c0.3,1.1 0.7,2.1 1.3,3.1c-0.5,0.4 -1.1,0.7 -1.7,0.7c-0.8,0 -1.6,-0.6 -1.6,-1.5l0,-0.1Zm2.9,-3.2c0,-0.3 -0.1,-0.6 -0.1,-1c0,-0.7 0.1,-1.5 0.8,-1.5c0.2,0 0.6,0 0.6,0.7c0,1 -0.6,1.4 -1.3,1.8Z" style="fill-rule:nonzero;"/><path d="M96.9,52.4l0.4,-2.4l-0.3,0c-0.1,0.1 -0.1,0.3 -0.5,0.3c-0.6,-0.1 -1.3,-0.2 -1.9,-0.3c-2.7,0.2 -4.8,2.3 -4.9,5c-0.1,1.7 1.1,3.1 2.8,3.3c0.1,0 0.2,0 0.4,0c1.3,-0.1 2.5,-0.7 3.3,-1.8l-0.2,-0.2c-0.7,0.8 -1.7,1.4 -2.8,1.4c-1.4,0 -2.1,-1 -2.1,-2.6c0,-1.8 1.2,-4.7 3.7,-4.7c1,0 1.9,0.8 1.9,1.9l0,0.1l0.2,0Z" style="fill-rule:nonzero;"/><path d="M100.7,52.7c-1.9,0.2 -3.4,1.8 -3.6,3.7c-0.1,0.9 0.6,1.7 1.5,1.8c0.1,0 0.2,0 0.4,0c1.9,0 3.5,-2.2 3.5,-3.7c0.1,-0.9 -0.6,-1.7 -1.5,-1.8c-0.1,0 -0.2,0 -0.3,0Zm-0.1,0.2c0.6,0 0.8,0.5 0.8,1.2c0,1.3 -1,3.8 -2.3,3.8c-0.6,0 -1,-0.4 -1,-1.1c0.1,-1.5 1.2,-3.9 2.5,-3.9Z" style="fill-rule:nonzero;"/><path d="M111.9,56.6c-0.5,0.6 -0.8,1 -1,1c-0.1,0 -0.2,0 -0.2,-0.2c0,-0.2 1,-3.4 1,-3.8c0,-0.4 -0.2,-0.8 -0.6,-0.8l-0.1,0c-0.8,0 -1.8,1.1 -2.6,2.5c0.2,-0.5 0.3,-1.1 0.4,-1.7c0,-0.5 -0.3,-0.8 -0.7,-0.8c-1,0 -2.3,1.9 -2.6,2.5l0.7,-2.4c-0.6,0.1 -1.3,0.3 -1.9,0.4l0,0.2c0.6,0 0.8,0 0.8,0.3c0,0.3 -1,3.7 -1.2,4.5l0.9,0c0.2,-1.1 0.6,-2.1 1.2,-3c0.3,-0.5 1.2,-1.7 1.8,-1.7c0.1,0 0.3,0 0.3,0.3c0,0.2 -0.8,3.2 -1.2,4.4l0.9,0c0.2,-1.1 0.6,-2.1 1.1,-3.1c0.4,-0.6 1.2,-1.7 1.7,-1.7c0.1,0 0.3,0.1 0.3,0.2c0,0.2 -0.9,3.6 -0.9,3.9c0,0.2 0,0.6 0.5,0.6c0.7,0 1.3,-0.7 1.7,-1.3l0.1,-0.1l-0.4,-0.2Z" style="fill-rule:nonzero;"/><path d="M121.2,56.6c-0.5,0.6 -0.8,1 -1,1c-0.1,0 -0.2,0 -0.2,-0.2c0,-0.2 1,-3.4 1,-3.8c0,-0.4 -0.2,-0.8 -0.6,-0.8l-0.1,0c-0.8,0 -1.8,1.1 -2.6,2.5c0.2,-0.5 0.3,-1.1 0.4,-1.7c0,-0.5 -0.3,-0.8 -0.7,-0.8c-1,0 -2.3,1.9 -2.6,2.5l0.7,-2.4c-0.6,0.1 -1.3,0.3 -1.9,0.4l0,0.2c0.6,0 0.8,0 0.8,0.3c0,0.3 -1,3.7 -1.2,4.5l0.9,0c0.2,-1.1 0.6,-2.1 1.2,-3c0.3,-0.5 1.2,-1.7 1.8,-1.7c0.1,0 0.3,0 0.3,0.3c0,0.2 -0.8,3.2 -1.2,4.4l0.9,0c0.2,-1.1 0.6,-2.1 1.1,-3.1c0.4,-0.6 1.2,-1.7 1.7,-1.7c0.1,0 0.3,0.1 0.3,0.2c0,0.2 -0.9,3.6 -0.9,3.9c0,0.2 0,0.6 0.5,0.6c0.7,0 1.3,-0.7 1.7,-1.3l0.1,-0.1l-0.4,-0.2Z" style="fill-rule:nonzero;"/><path d="M127.9,56.6c-0.4,0.5 -0.8,1 -1,1c-0.1,0 -0.1,-0.1 -0.1,-0.2c0,-0.3 0.1,-0.6 0.2,-1l1,-3.6l-1,0c-0.3,1 -0.8,2 -1.3,3c-0.4,0.6 -1.2,1.8 -1.7,1.8c-0.3,0 -0.3,-0.3 -0.3,-0.4l1.1,-4.4c-0.6,0.1 -1.2,0.3 -1.8,0.3l0,0.2c0.5,0 0.7,0 0.7,0.4c0,0.3 -0.9,3.4 -0.9,3.9c0,0.5 0.2,0.7 0.7,0.7c1.1,0 2,-1.5 2.8,-2.9c-0.2,0.7 -0.4,1.5 -0.5,2.2c0,0.3 0.2,0.6 0.4,0.6l0.1,0c0.6,0 0.9,-0.3 1.7,-1.4l-0.1,-0.2Z" style="fill-rule:nonzero;"/><path d="M134.5,56.6c-0.4,0.6 -0.8,1 -1,1c-0.1,0 -0.2,-0.1 -0.2,-0.2c0,-0.4 1,-3.4 1,-3.9c0,-0.4 -0.3,-0.8 -0.7,-0.8c-0.1,0 -0.1,0 -0.2,0c-1,0 -2.1,1.7 -2.7,2.6l0.8,-2.5c-0.7,0.1 -1.3,0.3 -2,0.4l0,0.2c0.7,0 0.8,0.1 0.8,0.3c0,0.3 -0.8,3.1 -1.2,4.5l0.9,0c0.2,-1.1 0.6,-2.1 1.2,-3c0.4,-0.7 1.2,-1.7 1.8,-1.7c0.2,0 0.3,0.2 0.3,0.4c0,0.5 -0.9,3.4 -0.9,3.7c0,0.4 0,0.7 0.6,0.7c0.7,0 1.1,-0.6 1.7,-1.4l-0.2,-0.3Z" style="fill-rule:nonzero;"/><path d="M138.3,56.6c-0.5,0.7 -0.8,0.9 -1,0.9c-0.1,0 -0.2,-0.1 -0.2,-0.2c0,-0.3 0.1,-0.5 0.2,-0.8l1.1,-3.9c-0.5,0.1 -1.5,0.3 -1.9,0.3l0,0.2c0.7,0 0.8,0.1 0.8,0.3c0,0.3 -1,3.3 -1,3.9c0,0.2 0,0.8 0.6,0.8c0.7,0 1.2,-0.7 1.7,-1.4l-0.3,-0.1Zm0.5,-5.8c0,-0.3 -0.3,-0.6 -0.6,-0.7c-0.3,0 -0.6,0.3 -0.6,0.6c0,0.3 0.2,0.6 0.5,0.6l0.1,0c0.4,0.1 0.6,-0.2 0.6,-0.5Z" style="fill-rule:nonzero;"/><path d="M143.9,56.7c-0.4,0.6 -1,0.9 -1.7,1c-0.7,0 -1.1,-0.5 -1.1,-1.5c0,-1.2 0.8,-3.3 2.4,-3.3c0.2,0 0.5,0.1 0.5,0.2c0,0.2 -0.2,0.3 -0.2,0.6c0,0.2 0.2,0.4 0.4,0.5l0.1,0c0.3,0 0.6,-0.2 0.6,-0.5c0,-0.4 -0.3,-1 -1.3,-1c-1.9,0.2 -3.4,1.7 -3.5,3.6c0,1.6 1,1.9 1.8,1.9c0.9,0 1.8,-0.5 2.3,-1.3l-0.3,-0.2Z" style="fill-rule:nonzero;"/><path d="M151.1,56.7c-0.5,0.5 -0.8,0.8 -1,0.8c-0.1,0 -0.2,-0.1 -0.2,-0.2c0,-0.4 1.1,-4.5 1.2,-4.7l-0.1,0l-0.7,0.1l-0.1,0.5c-0.1,-0.4 -0.5,-0.7 -1,-0.7c-1.6,0 -3.5,2.3 -3.5,4c-0.1,0.7 0.3,1.3 1,1.4c0.1,0 0.2,0 0.2,0c0.7,0 1.4,-0.4 2.4,-1.8c-0.1,0.4 -0.2,0.8 -0.3,1.3c0,0.2 0,0.5 0.5,0.5c0.5,0 0.9,-0.4 1.7,-1.3l-0.1,0.1Zm-4.4,0c0,-1.1 1.1,-3.8 2.5,-3.8c0.4,0 0.7,0.2 0.7,0.8c0,1.2 -1.2,3.8 -2.5,3.8c-0.3,0.1 -0.7,-0.2 -0.7,-0.8Z" style="fill-rule:nonzero;"/><path d="M155.8,52.8l-1,0l0.3,-1.2c0,-0.1 0,-0.2 -0.1,-0.2c-0.1,0 -0.2,0.1 -0.2,0.1c-0.4,0.5 -0.8,0.9 -1.3,1.2c-0.2,0.1 -0.5,0.2 -0.6,0.3c0,0.1 0,0.1 0,0.2l0.9,0l-0.9,3.3c-0.1,0.4 -0.2,0.7 -0.3,1.1c0,0.3 0.3,0.5 0.6,0.5c0.6,0 1.1,-0.5 1.7,-1.5l-0.2,-0.1c-0.3,0.4 -0.7,1 -1,1c-0.1,0 -0.2,-0.1 -0.2,-0.2l0,-0.1l1.1,-4l1,0l0.2,-0.4Z" style="fill-rule:nonzero;"/><path d="M158.9,56.6c-0.5,0.7 -0.8,0.9 -1,0.9c-0.1,0 -0.2,-0.1 -0.2,-0.2c0,-0.3 0.1,-0.5 0.2,-0.8l1.1,-3.9c-0.5,0.1 -1.5,0.3 -1.9,0.3l0,0.2c0.7,0 0.8,0.1 0.8,0.3c0,0.3 -1,3.3 -1,3.9c0,0.2 0,0.8 0.6,0.8c0.7,0 1.2,-0.7 1.7,-1.4l-0.3,-0.1Zm0.5,-5.8c0,-0.3 -0.3,-0.6 -0.6,-0.7c-0.3,0 -0.6,0.3 -0.6,0.6c0,0.3 0.2,0.6 0.5,0.6l0.1,0c0.3,0.1 0.6,-0.2 0.6,-0.5Z" style="fill-rule:nonzero;"/><path d="M164.1,52.7c-1.9,0.2 -3.4,1.8 -3.6,3.7c-0.1,0.9 0.6,1.7 1.5,1.8c0.1,0 0.2,0 0.4,0c1.9,0 3.5,-2.2 3.5,-3.7c0.1,-0.9 -0.6,-1.7 -1.5,-1.8c-0.1,0 -0.2,0 -0.3,0Zm-0.1,0.2c0.6,0 0.8,0.5 0.8,1.2c0,1.3 -1,3.8 -2.3,3.8c-0.6,0 -1,-0.4 -1,-1.1c0,-1.5 1.1,-3.9 2.5,-3.9Z" style="fill-rule:nonzero;"/><path d="M172.4,56.6c-0.4,0.6 -0.8,1 -1,1c-0.1,0 -0.2,-0.1 -0.2,-0.2c0,-0.4 1,-3.4 1,-3.9c0,-0.4 -0.3,-0.8 -0.7,-0.8c-0.1,0 -0.1,0 -0.2,0c-1,0 -2.1,1.7 -2.7,2.6l0.8,-2.5c-0.7,0.1 -1.3,0.3 -2,0.4l0,0.2c0.7,0 0.8,0.1 0.8,0.3c0,0.3 -0.8,3.1 -1.2,4.5l0.9,0c0.2,-1.1 0.6,-2.1 1.2,-3c0.4,-0.7 1.2,-1.7 1.8,-1.7c0.2,0 0.3,0.2 0.3,0.4c0,0.5 -0.9,3.4 -0.9,3.7c0,0.4 0,0.7 0.6,0.7c0.7,0 1.1,-0.6 1.7,-1.4l-0.2,-0.3Z" style="fill-rule:nonzero;"/><path d="M174,56.3l-0.2,1.9l0.2,0c0.1,-0.1 0.1,-0.3 0.3,-0.3c0.4,0 0.8,0.2 1.2,0.2c0.9,0.1 1.7,-0.5 1.8,-1.4c0,-0.1 0,-0.1 0,-0.2c0,-1 -1.5,-2.1 -1.5,-2.9c0,-0.3 0.2,-0.6 0.5,-0.7l0.1,0c0.8,0 1.1,0.7 1.1,1.4l0.2,0l0.2,-1.7l-0.2,0c-0.1,0.1 -0.2,0.2 -0.3,0.2c-0.4,0 -0.6,-0.2 -1.2,-0.2c-0.7,-0.1 -1.4,0.4 -1.4,1.1c0,0.1 0,0.1 0,0.2c0,0.9 1.4,2.1 1.4,2.9c0.1,0.5 -0.3,0.9 -0.8,1l-0.1,0c-1,0 -1.2,-1.1 -1.3,-1.6l0,0.1Z" style="fill-rule:nonzero;"/><path d="M12,58l3,0l0,-0.2c-0.5,-0.1 -0.8,-0.1 -0.8,-0.5c0,-0.3 0,-0.5 0.1,-0.8l1.5,-5.4c0.2,-0.8 0.4,-0.8 1,-0.9l0,-0.2l-3,0l0,0.2c0.5,0.1 0.8,0.1 0.8,0.5c0,0.3 -0.1,0.5 -0.1,0.8l-1.5,5.4c-0.2,0.8 -0.4,0.8 -1,0.9l0,0.2Z" style="fill-rule:nonzero;"/><path d="M22,56.6c-0.4,0.6 -0.8,1 -1,1c-0.1,0 -0.2,-0.1 -0.2,-0.2c0,-0.4 1,-3.4 1,-3.9c0,-0.4 -0.3,-0.8 -0.7,-0.8c-0.1,0 -0.1,0 -0.2,0c-1,0 -2.1,1.7 -2.7,2.6l0.8,-2.5c-0.7,0.1 -1.3,0.3 -2,0.4l0,0.2c0.7,0 0.8,0.1 0.8,0.3c0,0.3 -0.8,3.1 -1.2,4.5l0.9,0c0.2,-1.1 0.6,-2.1 1.2,-3c0.4,-0.7 1.2,-1.7 1.8,-1.7c0.2,0 0.3,0.2 0.3,0.4c0,0.5 -0.9,3.4 -0.9,3.7c0,0.4 0,0.7 0.6,0.7c0.7,0 1.1,-0.6 1.7,-1.4l-0.2,-0.3Z" style="fill-rule:nonzero;"/><path d="M23.9,53.2l1.1,0l-1.1,5.1c-0.1,0.5 -0.4,2 -1.2,2c-0.1,0 -0.2,-0.1 -0.2,-0.2c0,-0.1 0.1,-0.1 0.1,-0.3c0,-0.3 -0.2,-0.5 -0.5,-0.4c-0.4,0 -0.4,0.5 -0.4,0.5c0.1,0.5 0.5,0.8 0.9,0.7c1.4,0 2.1,-1.9 2.4,-3.4l0.9,-3.9l1.3,0l0.1,-0.4l-1.3,0c0.1,-0.6 0.5,-2.8 1.5,-2.8c0.2,0 0.3,0 0.3,0.1c0,0.1 -0.1,0.1 -0.1,0.4c0,0.2 0.2,0.4 0.4,0.5c0.3,0 0.5,-0.2 0.5,-0.5c0,-0.2 -0.2,-0.8 -1.1,-0.8c-1.5,0 -2.1,2 -2.4,3l-1.1,0l-0.1,0.4Z" style="fill-rule:nonzero;"/><path d="M30.8,52.7c-1.9,0.2 -3.4,1.8 -3.6,3.7c-0.1,0.9 0.6,1.7 1.5,1.8c0.1,0 0.2,0 0.4,0c1.9,0 3.5,-2.2 3.5,-3.7c0.1,-0.9 -0.6,-1.7 -1.5,-1.8c-0.1,0 -0.2,0 -0.3,0Zm-0.1,0.2c0.6,0 0.8,0.5 0.8,1.2c0,1.3 -1,3.8 -2.3,3.8c-0.6,0 -1,-0.4 -1,-1.1c0.1,-1.5 1.2,-3.9 2.5,-3.9Z" style="fill-rule:nonzero;"/><path d="M35.1,58c0.3,-1 0.6,-2.1 1.1,-3c0.1,-0.2 0.8,-1.5 1.2,-1.5c0.3,0 0.1,0.4 0.6,0.4c0.1,0 0.6,0 0.6,-0.6c0,-0.3 -0.2,-0.6 -0.5,-0.6l-0.1,0c-0.8,0 -1.7,1.4 -2.1,2.2l-0.1,0.2l0.6,-2.4c-0.5,0.1 -1.3,0.2 -1.9,0.3l0,0.2c0.1,0 0.3,-0.1 0.4,-0.1c0.4,0 0.4,0.2 0.4,0.4c0,0.3 -0.1,0.7 -0.2,1l-1,3.5l1,0Z" style="fill-rule:nonzero;"/><path d="M47.3,56.6c-0.5,0.6 -0.8,1 -1,1c-0.1,0 -0.2,0 -0.2,-0.2c0,-0.2 1,-3.4 1,-3.8c0,-0.4 -0.2,-0.8 -0.6,-0.8l-0.1,0c-0.8,0 -1.8,1.1 -2.6,2.5c0.2,-0.5 0.3,-1.1 0.4,-1.7c0,-0.5 -0.3,-0.8 -0.7,-0.8c-1,0 -2.3,1.9 -2.6,2.5l0.7,-2.4c-0.6,0.1 -1.3,0.3 -1.9,0.4l0,0.2c0.6,0 0.8,0 0.8,0.3c0,0.3 -1,3.7 -1.2,4.5l0.7,0c0.2,-1.1 0.6,-2.1 1.2,-3c0.3,-0.5 1.2,-1.7 1.8,-1.7c0.1,0 0.3,0 0.3,0.3c0,0.2 -0.8,3.2 -1.2,4.4l0.9,0c0.2,-1.1 0.6,-2.1 1.1,-3.1c0.4,-0.6 1.2,-1.7 1.7,-1.7c0.1,0 0.3,0.1 0.3,0.2c0,0.2 -0.9,3.6 -0.9,3.9c0,0.2 0,0.6 0.5,0.6c0.7,0 1.3,-0.7 1.7,-1.3l0.1,-0.1l-0.2,-0.2Z" style="fill-rule:nonzero;"/><path d="M54,56.7c-0.5,0.5 -0.8,0.8 -1,0.8c-0.1,0 -0.2,-0.1 -0.2,-0.2c0,-0.4 1.1,-4.5 1.2,-4.7l-0.1,0l-0.7,0.1l-0.2,0.6c-0.1,-0.4 -0.5,-0.7 -1,-0.7c-1.6,0 -3.5,2.3 -3.5,4c-0.1,0.7 0.3,1.3 1,1.4c0.1,0 0.2,0 0.2,0c0.7,0 1.4,-0.4 2.4,-1.8c-0.1,0.4 -0.2,0.8 -0.3,1.3c0,0.2 0,0.5 0.5,0.5c0.5,0 0.9,-0.4 1.7,-1.3Zm-4.4,0c0,-1.1 1.1,-3.8 2.5,-3.8c0.4,0 0.7,0.2 0.7,0.8c0,1.2 -1.2,3.8 -2.5,3.8c-0.3,0.1 -0.7,-0.2 -0.7,-0.8Z" style="fill-rule:nonzero;"/><path d="M58.6,52.8l-1,0l0.3,-1.2c0,-0.1 0,-0.2 -0.1,-0.2c-0.1,0 -0.2,0.1 -0.2,0.1c-0.4,0.5 -0.8,0.9 -1.3,1.2c-0.2,0.1 -0.5,0.2 -0.6,0.3c0,0.1 0,0.1 0,0.2l0.9,0l-0.9,3.3c-0.1,0.4 -0.2,0.7 -0.3,1.1c0,0.3 0.3,0.5 0.6,0.5c0.6,0 1.1,-0.5 1.7,-1.5l-0.2,-0.1c-0.3,0.4 -0.7,1 -1,1c-0.1,0 -0.2,-0.1 -0.2,-0.2l0,-0.1l1.1,-4l1,0l0.2,-0.4Z" style="fill-rule:nonzero;"/><path d="M61.7,56.6c-0.5,0.7 -0.8,0.9 -1,0.9c-0.1,0 -0.2,-0.1 -0.2,-0.2c0,-0.3 0.1,-0.5 0.2,-0.8l1.1,-3.9c-0.5,0.1 -1.5,0.3 -1.9,0.3l0,0.2c0.7,0 0.8,0.1 0.8,0.3c0,0.3 -1,3.3 -1,3.9c0,0.2 0,0.8 0.6,0.8c0.7,0 1.2,-0.7 1.7,-1.4l-0.3,-0.1Zm0.6,-5.8c0,-0.3 -0.3,-0.6 -0.6,-0.7c-0.3,0 -0.6,0.3 -0.6,0.6c0,0.3 0.2,0.6 0.5,0.6l0.1,0c0.3,0.1 0.5,-0.2 0.6,-0.5Z" style="fill-rule:nonzero;"/><path d="M66.9,52.7c-1.9,0.2 -3.4,1.8 -3.6,3.7c-0.1,0.9 0.6,1.7 1.5,1.8c0.1,0 0.2,0 0.4,0c1.9,0 3.5,-2.2 3.5,-3.7c0.1,-0.9 -0.6,-1.7 -1.5,-1.8c-0.1,0 -0.2,0 -0.3,0Zm0,0.2c0.6,0 0.8,0.5 0.8,1.2c0,1.3 -1,3.8 -2.3,3.8c-0.6,0 -1,-0.4 -1,-1.1c0,-1.5 1.1,-3.9 2.5,-3.9Z" style="fill-rule:nonzero;"/><path d="M75.3,56.6c-0.4,0.6 -0.8,1 -1,1c-0.1,0 -0.2,-0.1 -0.2,-0.2c0,-0.4 1,-3.4 1,-3.9c0,-0.4 -0.3,-0.8 -0.7,-0.8c-0.1,0 -0.1,0 -0.2,0c-1,0 -2.1,1.7 -2.7,2.6l0.8,-2.5c-0.7,0.1 -1.3,0.3 -2,0.4l0,0.2c0.7,0 0.8,0.1 0.8,0.3c0,0.3 -0.8,3.1 -1.2,4.5l0.9,0c0.2,-1.1 0.6,-2.1 1.2,-3c0.4,-0.7 1.2,-1.7 1.8,-1.7c0.2,0 0.3,0.2 0.3,0.4c0,0.5 -0.9,3.4 -0.9,3.7c0,0.4 0,0.7 0.6,0.7c0.7,0 1.1,-0.6 1.7,-1.4l-0.2,-0.3Z" style="fill-rule:nonzero;"/></g></svg>